<svg id="Capa_1" enable-background="new 0 0 512 512" height="512" viewBox="0 0 512 512" width="512" xmlns="http://www.w3.org/2000/svg"><g><path d="m181 100h150c8.284 0 15-6.716 15-15v-25c0-11.046-8.954-20-20-20h-30c0-22.092-17.908-40-40-40s-40 17.908-40 40h-30c-11.046 0-20 8.954-20 20v25c0 8.284 6.716 15 15 15z"/><circle cx="403" cy="231" r="30"/><path d="m285.165 260.949c4.749-.029 10.027-.071 13.018-.124 15.071-.263 21.817-15.169 21.817-29.825 0-14.503-5.86-30-22.306-30h-12.64c.017 9.833.08 50.481.111 59.949z"/><circle cx="175" cy="231" r="30"/><path d="m467 60h-91v25c0 24.813-20.187 45-45 45h-150c-24.813 0-45-20.187-45-45v-25h-91c-24.813 0-45 20.187-45 45v362c0 24.813 20.187 45 45 45h422c24.813 0 45-20.187 45-45v-362c0-24.813-20.187-45-45-45zm-199.042 123.936c1.876-1.879 4.422-2.936 7.078-2.936h22.658c25.305 0 42.306 20.093 42.306 50 0 28.449-17.44 49.403-41.469 49.822-6.454.113-22.61.175-23.294.178-.013 0-.025 0-.038 0-2.639 0-5.171-1.043-7.045-2.903-1.882-1.869-2.945-4.409-2.955-7.061-.001-.29-.162-80.018-.162-80.018-.006-2.655 1.046-5.203 2.921-7.082zm-208.958 7.064c0-5.523 4.477-10 10-10h44.181c5.523 0 10 4.477 10 10s-4.477 10-10 10h-12.18v70c0 5.523-4.477 10-10 10s-10-4.477-10-10v-70h-12.001c-5.523 0-10-4.477-10-10zm87 228h-60c-8.284 0-15-6.716-15-15s6.716-15 15-15h60c8.284 0 15 6.716 15 15s-6.716 15-15 15zm0-60h-60c-8.284 0-15-6.716-15-15s6.716-15 15-15h60c8.284 0 15 6.716 15 15s-6.716 15-15 15zm-21-128c0-27.57 22.43-50 50-50s50 22.43 50 50-22.43 50-50 50-50-22.43-50-50zm301 188h-220c-8.284 0-15-6.716-15-15s6.716-15 15-15h220c8.284 0 15 6.716 15 15s-6.716 15-15 15zm0-60h-220c-8.284 0-15-6.716-15-15s6.716-15 15-15h220c8.284 0 15 6.716 15 15s-6.716 15-15 15zm-23-78c-27.57 0-50-22.43-50-50s22.43-50 50-50 50 22.43 50 50-22.43 50-50 50z"/></g></svg>